<svg width="22" height="20" viewBox="0 0 22 20" fill="none" xmlns="http://www.w3.org/2000/svg">
<path d="M21.6042 15.556L13.5463 1.48134C12.4161 -0.493778 9.58781 -0.493778 8.45767 1.48134L0.397801 15.556C-0.732343 17.5311 0.679847 20 2.94209 20H19.0579C21.3202 20 22.7323 17.5311 21.6022 15.556H21.6042ZM11 17.8293C10.3576 17.8293 9.83656 17.304 9.83656 16.6561C9.83656 16.0083 10.3576 15.4829 11 15.4829C11.6424 15.4829 12.1634 16.0083 12.1634 16.6561C12.1634 17.304 11.6424 17.8293 11 17.8293ZM12.1654 12.8461C12.1654 13.494 11.6444 14.0194 11.002 14.0194C10.3595 14.0194 9.83852 13.494 9.83852 12.8461V6.17025C9.83852 5.52242 10.3595 4.99704 11.002 4.99704C11.6444 4.99704 12.1654 5.52242 12.1654 6.17025V12.8461Z" fill="#FF0000"/>
</svg>
