<svg width="29" height="22" viewBox="0 0 29 22" fill="none" xmlns="http://www.w3.org/2000/svg">
<path d="M14.5951 13.7637C17.048 13.7637 19.04 15.7558 19.04 18.2089V20.9995H10.1512V18.2089C10.1512 15.7558 12.1433 13.7637 14.5962 13.7637H14.5951Z" stroke="#4CA32D" stroke-width="1.5" stroke-linecap="round" stroke-linejoin="round"/>
<path d="M14.5931 11.6313C16.2856 11.6313 17.6576 10.2592 17.6576 8.56663C17.6576 6.87406 16.2856 5.50195 14.5931 5.50195C12.9007 5.50195 11.5287 6.87406 11.5287 8.56663C11.5287 10.2592 12.9007 11.6313 14.5931 11.6313Z" stroke="#4CA32D" stroke-width="1.5" stroke-linecap="round" stroke-linejoin="round"/>
<path d="M22.5623 8.04671C24.5081 8.04671 26.0854 6.46925 26.0854 4.52336C26.0854 2.57746 24.5081 1 22.5623 1C20.6165 1 19.0392 2.57746 19.0392 4.52336C19.0392 6.46925 20.6165 8.04671 22.5623 8.04671Z" stroke="#4CA32D" stroke-width="1.5" stroke-linecap="round" stroke-linejoin="round"/>
<path d="M6.62431 8.04671C8.57007 8.04671 10.1474 6.46925 10.1474 4.52336C10.1474 2.57746 8.57007 1 6.62431 1C4.67855 1 3.1012 2.57746 3.1012 4.52336C3.1012 6.46925 4.67855 8.04671 6.62431 8.04671Z" stroke="#4CA32D" stroke-width="1.5" stroke-linecap="round" stroke-linejoin="round"/>
<path d="M19.0386 20.9984H28.1867V15.8C28.1867 12.6946 25.6692 10.1758 22.5629 10.1758C19.8948 10.1758 17.6615 12.0332 17.084 14.5259" stroke="#4CA32D" stroke-width="1.5" stroke-linecap="round" stroke-linejoin="round"/>
<path d="M12.1027 14.5279C11.5252 12.0351 9.29193 10.1777 6.62384 10.1777C3.51861 10.1777 1 12.6954 1 15.802V21.0004H10.1481" stroke="#4CA32D" stroke-width="1.5" stroke-linecap="round" stroke-linejoin="round"/>
</svg>
