<svg width="37" height="38" viewBox="0 0 37 38" fill="none" xmlns="http://www.w3.org/2000/svg">
<path d="M11.7329 10.5135C14.36 10.5135 16.4897 8.38381 16.4897 5.75674C16.4897 3.12966 14.36 1 11.7329 1C9.10586 1 6.9762 3.12966 6.9762 5.75674C6.9762 8.38381 9.10586 10.5135 11.7329 10.5135Z" fill="#4CA32D" stroke="#4CA32D" stroke-width="1.75" stroke-linecap="round" stroke-linejoin="round"/>
<path d="M24.6916 10.5135C27.3187 10.5135 29.4483 8.38381 29.4483 5.75674C29.4483 3.12966 27.3187 1 24.6916 1C22.0645 1 19.9349 3.12966 19.9349 5.75674C19.9349 8.38381 22.0645 10.5135 24.6916 10.5135Z" fill="#4CA32D" stroke="#4CA32D" stroke-width="1.75" stroke-linecap="round" stroke-linejoin="round"/>
<path d="M4.56547 19.4715C6.53483 19.4715 8.13132 17.875 8.13132 15.9057C8.13132 13.9363 6.53483 12.3398 4.56547 12.3398C2.59612 12.3398 0.999634 13.9363 0.999634 15.9057C0.999634 17.875 2.59612 19.4715 4.56547 19.4715Z" fill="#4CA32D" stroke="#4CA32D" stroke-width="1.75" stroke-linecap="round" stroke-linejoin="round"/>
<path d="M31.8468 19.4715C33.8162 19.4715 35.4127 17.875 35.4127 15.9057C35.4127 13.9363 33.8162 12.3398 31.8468 12.3398C29.8775 12.3398 28.281 13.9363 28.281 15.9057C28.281 17.875 29.8775 19.4715 31.8468 19.4715Z" fill="#4CA32D" stroke="#4CA32D" stroke-width="1.75" stroke-linecap="round" stroke-linejoin="round"/>
<path d="M24.5485 21.2314C24.5485 21.2314 24.5485 21.1767 24.5485 21.1493C24.5485 17.645 21.7081 14.8047 18.2039 14.8047C14.6996 14.8047 11.8593 17.645 11.8593 21.1493C11.8593 21.1767 11.8593 21.204 11.8593 21.2314C8.00598 21.7721 5.03558 25.071 5.03558 29.0749C5.03558 33.4552 8.58774 37.0005 12.9612 37.0005C14.9734 37.0005 16.8008 36.2476 18.197 35.0157C19.5933 36.2476 21.4207 37.0005 23.4329 37.0005C27.8132 37.0005 31.3585 33.4484 31.3585 29.0749C31.3585 25.071 28.3881 21.7721 24.5348 21.2314H24.5485Z" fill="#4CA32D" stroke="#4CA32D" stroke-width="1.75" stroke-linecap="round" stroke-linejoin="round"/>
</svg>
