<svg width="40" height="36" viewBox="0 0 40 36" fill="none" xmlns="http://www.w3.org/2000/svg">
<path d="M23.8487 19.7802C24.8287 23.0402 27.8587 25.4202 31.4387 25.4202C32.2487 25.4202 32.9087 24.7602 32.9087 23.9502V16.5102C32.9087 15.2102 31.8587 14.1602 30.5587 14.1602H25.8787C24.7087 14.1602 23.7487 15.0102 23.5587 16.1202C22.3187 16.0702 21.0587 16.0402 19.7787 16.0402C18.4987 16.0402 17.2387 16.0702 15.9887 16.1202C15.7987 15.0102 14.8287 14.1602 13.6687 14.1602H8.98867C7.68867 14.1602 6.63867 15.2102 6.63867 16.5102V23.9502C6.63867 24.7602 7.29867 25.4202 8.10867 25.4202C11.6887 25.4202 14.7087 23.0502 15.6987 19.7802" stroke="#4CA32D" stroke-width="1.75" stroke-linecap="round" stroke-linejoin="round"/>
<path d="M29.82 25.25L31.74 34.26C35.91 30.81 38.56 25.61 38.56 19.78C38.56 9.41 30.15 1 19.78 1C9.41 1 1 9.41 1 19.78C1 25.61 3.65 30.82 7.82 34.26L9.74 25.25" stroke="#4CA32D" stroke-width="1.75" stroke-linecap="round" stroke-linejoin="round"/>
</svg>
