<svg width="29" height="30" viewBox="0 0 29 30" fill="none" xmlns="http://www.w3.org/2000/svg">
<path d="M9.34791 8.39907C11.3911 8.39907 13.0474 6.74273 13.0474 4.69954C13.0474 2.65634 11.3911 1 9.34791 1C7.30472 1 5.64838 2.65634 5.64838 4.69954C5.64838 6.74273 7.30472 8.39907 9.34791 8.39907Z" fill="#4CA32D" stroke="#4CA32D" stroke-width="1.75" stroke-linecap="round" stroke-linejoin="round"/>
<path d="M19.4273 8.39907C21.4705 8.39907 23.1268 6.74273 23.1268 4.69954C23.1268 2.65634 21.4705 1 19.4273 1C17.3841 1 15.7277 2.65634 15.7277 4.69954C15.7277 6.74273 17.3841 8.39907 19.4273 8.39907Z" fill="#4CA32D" stroke="#4CA32D" stroke-width="1.75" stroke-linecap="round" stroke-linejoin="round"/>
<path d="M3.77338 15.367C5.30505 15.367 6.5467 14.1253 6.5467 12.5936C6.5467 11.062 5.30505 9.82031 3.77338 9.82031C2.24172 9.82031 1.00006 11.062 1.00006 12.5936C1.00006 14.1253 2.24172 15.367 3.77338 15.367Z" fill="#4CA32D" stroke="#4CA32D" stroke-width="1.75" stroke-linecap="round" stroke-linejoin="round"/>
<path d="M24.9916 15.367C26.5232 15.367 27.7649 14.1253 27.7649 12.5936C27.7649 11.062 26.5232 9.82031 24.9916 9.82031C23.4599 9.82031 22.2183 11.062 22.2183 12.5936C22.2183 14.1253 23.4599 15.367 24.9916 15.367Z" fill="#4CA32D" stroke="#4CA32D" stroke-width="1.75" stroke-linecap="round" stroke-linejoin="round"/>
<path d="M19.3138 16.7347C19.3138 16.7347 19.3138 16.6921 19.3138 16.6708C19.3138 13.9454 17.1047 11.7363 14.3793 11.7363C11.6539 11.7363 9.4448 13.9454 9.4448 16.6708C9.4448 16.6921 9.4448 16.7134 9.4448 16.7347C6.44791 17.1552 4.1377 19.7209 4.1377 22.8349C4.1377 26.2417 6.90037 28.9991 10.3018 28.9991C11.8668 28.9991 13.2881 28.4135 14.374 27.4554C15.4599 28.4135 16.8811 28.9991 18.4461 28.9991C21.8529 28.9991 24.6102 26.2364 24.6102 22.8349C24.6102 19.7209 22.3 17.1552 19.3031 16.7347H19.3138Z" fill="#4CA32D" stroke="#4CA32D" stroke-width="1.75" stroke-linecap="round" stroke-linejoin="round"/>
</svg>
