<svg width="40" height="36" viewBox="0 0 40 36" fill="none" xmlns="http://www.w3.org/2000/svg">
<path d="M19.78 1C9.41 1 1 9.41 1 19.78C1 25.93 3.95 31.38 8.51 34.81V12.27C8.51 10.2 10.19 8.51 12.27 8.51C14.35 8.51 16.03 10.19 16.03 12.27V23.62C17.27 23.56 18.52 23.54 19.79 23.54C21.06 23.54 22.31 23.57 23.55 23.62V12.27C23.55 10.2 25.23 8.51 27.31 8.51C29.39 8.51 31.07 10.19 31.07 12.27V34.81C35.63 31.38 38.58 25.93 38.58 19.78C38.57 9.41 30.16 1 19.78 1Z" stroke="#4CA32D" stroke-width="1.75" stroke-linecap="round" stroke-linejoin="round"/>
</svg>
