<svg width="13" height="20" viewBox="0 0 13 20" fill="none" xmlns="http://www.w3.org/2000/svg">
<path d="M6.49914 0C2.91058 0 0 2.88944 0 6.45194C0 7.05023 0.0821809 7.62811 0.234558 8.17711C0.296194 8.39636 0.368102 8.61222 0.451995 8.82298L0.648887 9.26829L6.49914 20L12.358 9.253L12.536 8.85187C12.625 8.63262 12.7004 8.40826 12.7654 8.17881C12.9178 7.62981 13 7.05193 13 6.45364C13 2.88944 10.0894 0.00169967 6.50086 0.00169967L6.49914 0ZM6.49914 9.2496C4.91031 9.2496 3.62281 7.97145 3.62281 6.39415C3.62281 4.81686 4.91031 3.53871 6.49914 3.53871C8.08798 3.53871 9.37548 4.81686 9.37548 6.39415C9.37548 7.97145 8.08798 9.2496 6.49914 9.2496Z" fill="#4CA32D"/>
</svg>
