<svg width="33" height="34" viewBox="0 0 33 34" fill="none" xmlns="http://www.w3.org/2000/svg">
<path d="M10.5405 9.4563C12.8757 9.4563 14.7687 7.56329 14.7687 5.22815C14.7687 2.89301 12.8757 1 10.5405 1C8.20539 1 6.31238 2.89301 6.31238 5.22815C6.31238 7.56329 8.20539 9.4563 10.5405 9.4563Z" fill="#4CA32D" stroke="#4CA32D" stroke-width="1.75" stroke-linecap="round" stroke-linejoin="round"/>
<path d="M22.0594 9.4563C24.3946 9.4563 26.2876 7.56329 26.2876 5.22815C26.2876 2.89301 24.3946 1 22.0594 1C19.7243 1 17.8313 2.89301 17.8313 5.22815C17.8313 7.56329 19.7243 9.4563 22.0594 9.4563Z" fill="#4CA32D" stroke="#4CA32D" stroke-width="1.75" stroke-linecap="round" stroke-linejoin="round"/>
<path d="M4.16953 17.4193C5.92005 17.4193 7.33912 16.0002 7.33912 14.2497C7.33912 12.4992 5.92005 11.0801 4.16953 11.0801C2.41901 11.0801 0.999939 12.4992 0.999939 14.2497C0.999939 16.0002 2.41901 17.4193 4.16953 17.4193Z" fill="#4CA32D" stroke="#4CA32D" stroke-width="1.75" stroke-linecap="round" stroke-linejoin="round"/>
<path d="M28.4192 17.4193C30.1697 17.4193 31.5888 16.0002 31.5888 14.2497C31.5888 12.4992 30.1697 11.0801 28.4192 11.0801C26.6686 11.0801 25.2496 12.4992 25.2496 14.2497C25.2496 16.0002 26.6686 17.4193 28.4192 17.4193Z" fill="#4CA32D" stroke="#4CA32D" stroke-width="1.75" stroke-linecap="round" stroke-linejoin="round"/>
<path d="M21.9312 18.984C21.9312 18.984 21.9312 18.9354 21.9312 18.911C21.9312 15.7962 19.4065 13.2715 16.2917 13.2715C13.1768 13.2715 10.6521 15.7962 10.6521 18.911C10.6521 18.9354 10.6521 18.9597 10.6521 18.984C7.22698 19.4647 4.58667 22.397 4.58667 25.9559C4.58667 29.8495 7.74409 33.0008 11.6316 33.0008C13.4202 33.0008 15.0445 32.3316 16.2856 31.2366C17.5266 32.3316 19.151 33.0008 20.9396 33.0008C24.8331 33.0008 27.9845 29.8434 27.9845 25.9559C27.9845 22.397 25.3442 19.4647 21.919 18.984H21.9312Z" fill="#4CA32D" stroke="#4CA32D" stroke-width="1.75" stroke-linecap="round" stroke-linejoin="round"/>
</svg>
