<svg width="27" height="24" viewBox="0 0 27 24" fill="none" xmlns="http://www.w3.org/2000/svg">
<path d="M13.5022 24L2.04158 12.2234C0.723854 10.8693 0 9.07311 0 7.15947C0 5.24583 0.723854 3.44963 2.04158 2.09787C3.35707 0.743811 5.10732 0 6.96738 0C8.82744 0 10.5777 0.743811 11.8932 2.09787L13.5 3.74899L15.1068 2.09787C16.4223 0.746114 18.1726 0 20.0326 0C21.8927 0 23.6429 0.743811 24.9584 2.09787C26.2739 3.44963 27 5.24813 27 7.15947C27 9.07081 26.2761 10.8693 24.9584 12.2211L13.4978 23.9977L13.5022 24Z" fill="white"/>
</svg>
