<svg width="21" height="22" viewBox="0 0 21 22" fill="none" xmlns="http://www.w3.org/2000/svg">
<path d="M6.96293 6.28523C8.4224 6.28523 9.60554 5.10209 9.60554 3.64261C9.60554 2.18314 8.4224 1 6.96293 1C5.50345 1 4.32031 2.18314 4.32031 3.64261C4.32031 5.10209 5.50345 6.28523 6.96293 6.28523Z" stroke="#4CA32D" stroke-width="1.5" stroke-linecap="round" stroke-linejoin="round"/>
<path d="M14.1621 6.28523C15.6216 6.28523 16.8048 5.10209 16.8048 3.64261C16.8048 2.18314 15.6216 1 14.1621 1C12.7027 1 11.5195 2.18314 11.5195 3.64261C11.5195 5.10209 12.7027 6.28523 14.1621 6.28523Z" stroke="#4CA32D" stroke-width="1.5" stroke-linecap="round" stroke-linejoin="round"/>
<path d="M2.98101 11.2628C4.07509 11.2628 4.96202 10.3759 4.96202 9.28179C4.96202 8.18771 4.07509 7.30078 2.98101 7.30078C1.88693 7.30078 1 8.18771 1 9.28179C1 10.3759 1.88693 11.2628 2.98101 11.2628Z" stroke="#4CA32D" stroke-width="1.5" stroke-linecap="round" stroke-linejoin="round"/>
<path d="M18.1373 11.2628C19.2313 11.2628 20.1183 10.3759 20.1183 9.28179C20.1183 8.18771 19.2313 7.30078 18.1373 7.30078C17.0432 7.30078 16.1562 8.18771 16.1562 9.28179C16.1562 10.3759 17.0432 11.2628 18.1373 11.2628Z" stroke="#4CA32D" stroke-width="1.5" stroke-linecap="round" stroke-linejoin="round"/>
<path d="M14.0787 12.2403C14.0787 12.2403 14.0787 12.2099 14.0787 12.1947C14.0787 10.2479 12.5007 8.66992 10.554 8.66992C8.60716 8.66992 7.0292 10.2479 7.0292 12.1947C7.0292 12.2099 7.0292 12.2251 7.0292 12.2403C4.88849 12.5407 3.23828 14.3734 3.23828 16.5978C3.23828 19.0313 5.21169 21.0009 7.64137 21.0009C8.75926 21.0009 9.77448 20.5826 10.5502 19.8982C11.3258 20.5826 12.341 21.0009 13.4589 21.0009C15.8924 21.0009 17.862 19.0275 17.862 16.5978C17.862 14.3734 16.2118 12.5407 14.0711 12.2403H14.0787Z" stroke="#4CA32D" stroke-width="1.5" stroke-linecap="round" stroke-linejoin="round"/>
</svg>
