<svg width="346" height="291" viewBox="0 0 346 291" fill="none" xmlns="http://www.w3.org/2000/svg">
<path d="M50.3087 166.037H49.5215C48.1603 166.037 47.0615 167.136 47.0615 168.497V169.227C47.0615 169.227 47.0943 169.227 47.1107 169.227C48.8737 169.227 50.3087 167.792 50.3087 166.029V166.037Z" stroke="#4CA32D" stroke-width="2.5" stroke-linecap="round" stroke-linejoin="round"/>
<path d="M111.677 278.695C113.3 258.712 121.189 232.456 158.088 231.603C149.642 211.751 135.744 203.133 122.394 193.695C102.813 179.846 101.952 150.104 71.7597 138.625C71.2267 138.42 70.6527 138.821 70.6527 139.395V149.375C57.7624 149.375 53.8265 166.029 50.6367 166.029H50.3087C50.3087 167.792 48.8737 169.227 47.1107 169.227C47.0943 169.227 47.0779 169.227 47.0615 169.227V173.13C47.0615 178.566 51.4649 182.97 56.9014 182.97H68.9635V183.084C68.9635 219.795 90.2751 216.491 90.2751 278.695H85.3305C80.7304 278.695 76.9994 282.426 77.0076 287.035C77.0076 288.388 78.1146 289.478 79.4676 289.478H90.2751H90.8408H111.267" stroke="#4CA32D" stroke-width="2.5" stroke-linecap="round" stroke-linejoin="round"/>
<path d="M189.92 219.795C177.178 219.795 166.616 210.414 164.779 198.18C164.451 195.982 162.549 194.375 160.327 194.375C157.58 194.375 155.448 196.81 155.858 199.525C158.342 216.08 172.602 228.774 189.83 228.815L189.912 228.921C203.95 228.921 215.332 240.434 215.332 254.636C215.332 268.838 203.95 280.351 189.912 280.351H166.116C166.1 258.654 163.025 243.214 158.088 231.603C121.189 232.455 113.3 258.712 111.677 278.695H103.567C98.9669 278.695 95.236 282.426 95.2442 287.034C95.2442 288.387 96.3511 289.478 97.7041 289.478H189.912C208.936 289.478 224.352 273.881 224.352 254.636C224.352 235.391 208.936 219.795 189.912 219.795H189.92Z" stroke="#4CA32D" stroke-width="2.5" stroke-linecap="round" stroke-linejoin="round"/>
<path d="M297.922 219.573C298.078 219.573 298.233 219.564 298.381 219.54C297.684 218.138 296.7 217.252 295.65 217.252C295.65 218.515 296.659 219.548 297.922 219.573Z" stroke="#4CA32D" stroke-width="2.5" stroke-linecap="round" stroke-linejoin="round"/>
<path d="M329.72 278.22H323.095C323.095 268.79 319.848 260.508 315.346 253.842C298.265 254.654 288.926 262.952 286.425 280.86H280.644C277.241 280.86 274.478 283.624 274.478 287.027C274.478 288.388 275.576 289.487 276.938 289.487H329.72C332.828 289.487 335.354 286.969 335.354 283.853C335.354 280.737 332.836 278.22 329.72 278.22Z" stroke="#4CA32D" stroke-width="2.5" stroke-linecap="round" stroke-linejoin="round"/>
<path d="M246.836 186.315C246.171 183.626 246.565 181.33 248.271 179.903C251.674 177.041 257.553 179.919 262.612 185.955C267.721 192.047 274.002 200.969 278.233 208.291" stroke="#4CA32D" stroke-width="2.5" stroke-linecap="round" stroke-linejoin="round"/>
<path d="M295.65 217.252H295.642H295.65Z" stroke="#4CA32D" stroke-width="2.5" stroke-linecap="round" stroke-linejoin="round"/>
<path d="M286.425 280.85C288.926 262.95 298.266 254.643 315.346 253.84C307.893 242.819 296.995 236.226 291.558 236.226L291.525 236.153C299.971 231.971 300.381 223.582 298.372 219.54C298.225 219.564 298.069 219.581 297.913 219.572C296.642 219.548 295.642 218.515 295.642 217.252C292.887 217.244 291.722 208.273 277.2 208.273H271.46C266.139 202.148 259.128 195.235 253.511 190.52C247.484 185.461 241.194 183.649 238.333 187.051C235.471 190.454 238.349 196.334 244.384 201.393C250.649 206.649 259.915 213.144 267.352 217.375C244.171 250.609 257.701 266.574 263.777 280.85H260.431C257.028 280.85 254.265 283.614 254.265 287.017C254.265 288.378 255.364 289.477 256.725 289.477H285.761" stroke="#4CA32D" stroke-width="2.5" stroke-linecap="round" stroke-linejoin="round"/>
<path d="M326.515 2.03043C322.48 2.38303 319.217 5.0644 317.913 8.63136C315.691 14.7813 310.279 19.4962 303.522 20.6196C302.891 18.8648 301.292 16.0113 300.021 14.1991C299.037 12.7969 297.815 12.0589 297.028 12.6165C296.757 12.8051 296.626 13.0921 296.585 13.4365C296.413 13.2889 296.249 13.1413 296.085 13.0101C294.297 11.5095 292.436 10.9765 291.591 11.9851C290.845 12.8789 291.427 14.3385 292.797 15.6997C292.182 15.7489 291.714 15.9867 291.493 16.4459C291.017 17.4627 292.1 18.7008 293.904 19.5454C296.413 20.7098 300.365 22.071 302.399 22.317C304.391 30.9433 312.468 37.0031 321.537 36.2159C323.718 36.0273 325.777 35.4533 327.654 34.5677C334.296 31.4353 338.618 24.408 337.937 16.6673C337.937 16.6673 337.757 14.6419 337.765 14.6419L337.47 11.2307C336.986 5.67119 332.082 1.55484 326.515 2.03863V2.03043Z" stroke="#4CA32D" stroke-width="2.5" stroke-linecap="round" stroke-linejoin="round"/>
<path d="M335.346 5.86112L343.25 4.33594L337.338 10.2645" stroke="#4CA32D" stroke-width="2.5" stroke-linecap="round" stroke-linejoin="round"/>
<path d="M321.536 36.1992L322.069 42.2098" stroke="#4CA32D" stroke-width="2.5" stroke-linecap="round" stroke-linejoin="round"/>
<path d="M337.297 40.8718L335.173 41.0604C335.607 45.9885 339.289 49.8507 343.922 50.7281L343.52 46.0951C343.242 42.9382 340.462 40.6012 337.305 40.88L337.297 40.8718Z" stroke="#4CA32D" stroke-width="2.5" stroke-linecap="round" stroke-linejoin="round"/>
<path d="M90.0859 268.864C52.3991 266.707 22.5022 235.457 22.5022 197.237C22.5022 180.665 28.1192 165.405 37.5572 153.261C40.7306 149.178 40.3862 143.372 36.7291 139.715C32.3667 135.353 25.159 135.804 21.3706 140.683C9.36596 156.123 2.15824 175.491 2.00244 196.54C1.67444 241.427 34.4823 279.154 77.1054 287.682" stroke="#4CA32D" stroke-width="2.5" stroke-linecap="round" stroke-linejoin="round"/>
<path d="M203.835 222.764C186.804 198.247 162.032 188.038 144.943 186.373C140.007 190.637 135.185 194.958 130.602 199.493" stroke="#4CA32D" stroke-width="2.5" stroke-linecap="round" stroke-linejoin="round"/>
<path d="M171.003 289.478H247.229C248.59 289.478 249.689 288.379 249.689 287.018C249.689 277.293 241.809 269.413 232.084 269.413H221.441C221.416 269.232 221.383 269.044 221.359 268.863" stroke="#4CA32D" stroke-width="2.5" stroke-linecap="round" stroke-linejoin="round"/>
<path d="M242.465 33.0622L268.164 30.8139C271.317 30.538 274.106 32.8786 274.382 36.0317L276.576 61.1015C277.472 71.345 269.884 80.3965 259.633 81.2934C249.389 82.1896 240.338 74.6021 239.441 64.3504L237.247 39.2806C236.971 36.1275 239.312 33.3381 242.465 33.0622Z" stroke="#4CA32D" stroke-width="2.5" stroke-linecap="round" stroke-linejoin="round"/>
<path d="M263.982 289.479H223.016" stroke="#4CA32D" stroke-width="2.5" stroke-linecap="round" stroke-linejoin="round"/>
<path d="M144.944 186.372C163.837 170.046 184.41 154.433 199.826 129.866C217.932 101.019 221.999 57.174 237.218 38.675C237.267 35.7723 239.506 33.3205 242.458 33.0581L268.156 30.8113C268.361 30.7949 268.566 30.7867 268.763 30.7949L279.324 29.8355C300.119 28.0152 311.296 43.1522 311.296 43.1522L335.174 41.0612C335.609 45.9894 339.29 49.8515 343.923 50.7289L344.563 58.0514C345.826 72.4915 335.149 85.2177 320.709 86.4805L284.909 89.6129L285.105 89.8425V209.422" stroke="#4CA32D" stroke-width="2.5" stroke-linecap="round" stroke-linejoin="round"/>
</svg>
