<svg width="48" height="48" viewBox="0 0 48 48" fill="none" xmlns="http://www.w3.org/2000/svg">
<circle cx="24" cy="24" r="24" fill="black"/>
<path fill-rule="evenodd" clip-rule="evenodd" d="M23.9769 10.1182C16.0868 10.1182 9.68945 16.5405 9.68945 24.4642C9.68945 30.8012 13.7831 36.178 19.4617 38.0751C20.1762 38.2069 20.4369 37.764 20.4369 37.3839C20.4369 37.0431 20.4244 36.1412 20.4173 34.9445C16.4426 35.8114 15.6038 33.0213 15.6038 33.0213C14.9544 31.3645 14.0178 30.9233 14.0178 30.9233C12.7201 30.0332 14.116 30.051 14.116 30.051C15.5495 30.1525 16.304 31.5295 16.304 31.5295C17.5792 33.7218 19.6486 33.0888 20.463 32.7212C20.5923 31.7942 20.9624 31.162 21.3703 30.8033C18.1976 30.4411 14.8619 29.2109 14.8619 23.7141C14.8619 22.1477 15.4184 20.8674 16.3329 19.864C16.1857 19.5007 15.6953 18.0429 16.4722 16.0679C16.4722 16.0679 17.6725 15.6825 20.4016 17.5382C21.5421 17.2199 22.7638 17.0613 23.9791 17.0549C25.1925 17.0613 26.4153 17.2199 27.5566 17.5382C30.2839 15.6821 31.4816 16.0679 31.4816 16.0679C32.2611 18.0429 31.771 19.5007 31.6234 19.864C32.5397 20.8674 33.0926 22.1477 33.0926 23.7141C33.0926 29.2244 29.7516 30.4375 26.5689 30.7926C27.0815 31.2355 27.5387 32.1107 27.5387 33.4492C27.5387 35.3671 27.5208 36.9135 27.5208 37.3843C27.5208 37.7679 27.778 38.2144 28.5032 38.0737C34.1764 36.173 38.2665 30.7997 38.2665 24.4646C38.2665 16.5405 31.8688 10.1185 23.9769 10.1185" fill="white"/>
</svg>
