<svg width="48" height="48" viewBox="0 0 48 48" fill="none" xmlns="http://www.w3.org/2000/svg">
<circle cx="24" cy="24" r="24" fill="black"/>
<path d="M10.1182 24.1072C10.1182 16.3926 16.3945 10.1162 24.1092 10.1162C27.225 10.1162 30.174 11.1187 32.6374 13.0152L29.3863 17.2387C27.863 16.0662 26.0382 15.4461 24.1092 15.4461C19.3334 15.4461 15.448 19.3314 15.448 24.1072C15.448 28.8831 19.3334 32.7684 24.1092 32.7684C27.9557 32.7684 31.2243 30.2483 32.351 26.7722H24.1092V21.4423H38.1002V24.1072C38.1002 31.8219 31.8238 38.0983 24.1092 38.0983C16.3945 38.0983 10.1182 31.8219 10.1182 24.1072Z" fill="white"/>
</svg>
