<svg width="114" height="117" viewBox="0 0 114 117" fill="none" xmlns="http://www.w3.org/2000/svg">
<path d="M12.1189 96.3436C13.3152 97.0115 14.2536 97.9541 14.9299 99.1715C15.6062 100.389 15.9486 101.775 15.9486 103.331C15.9486 104.886 15.6105 106.303 14.9299 107.52C14.2494 108.737 13.3194 109.68 12.1316 110.348C10.9438 111.016 9.60384 111.35 8.10747 111.35C6.8309 111.35 5.67692 111.083 4.64975 110.555C3.62258 110.027 2.7814 109.253 2.12198 108.234V115.94C2.12198 116.528 1.64432 117.001 1.06099 117.001C0.477656 117.005 0 116.532 0 115.944V96.4789C0 95.9167 0.456521 95.4602 1.01872 95.4602C1.58091 95.4602 2.03744 95.9167 2.03744 96.4789V98.5713C2.67572 97.5356 3.5169 96.7367 4.56521 96.1787C5.61351 95.6208 6.79286 95.3418 8.1117 95.3418C9.58694 95.3418 10.9227 95.6757 12.1232 96.3436H12.1189ZM10.9523 108.703C11.8484 108.196 12.5543 107.473 13.0616 106.535C13.5688 105.597 13.8267 104.531 13.8267 103.335C13.8267 102.139 13.573 101.078 13.0616 100.148C12.5543 99.2222 11.8484 98.4994 10.9523 97.9795C10.0561 97.4595 9.05856 97.2017 7.95952 97.2017C6.86049 97.2017 5.84178 97.4595 4.9541 97.9795C4.06642 98.4994 3.36895 99.2222 2.85748 100.148C2.35024 101.074 2.09239 102.139 2.09239 103.335C2.09239 104.531 2.34601 105.601 2.85748 106.535C3.36473 107.473 4.06642 108.196 4.9541 108.703C5.84178 109.211 6.84358 109.469 7.95952 109.469C9.07546 109.469 10.0561 109.215 10.9523 108.703Z" fill="black"/>
<path d="M34.6482 96.5247V110.182C34.6482 110.744 34.1917 111.201 33.6295 111.201C33.0673 111.201 32.6107 110.744 32.6107 110.182V108.086C31.9725 109.142 31.1313 109.95 30.083 110.508C29.0347 111.066 27.8553 111.345 26.5365 111.345C25.0612 111.345 23.7255 111.007 22.525 110.326C21.3288 109.65 20.3904 108.699 19.714 107.485C19.0335 106.268 18.6953 104.882 18.6953 103.326C18.6953 101.77 19.0335 100.384 19.714 99.1666C20.3904 97.9492 21.3288 97.0066 22.525 96.3387C23.7213 95.6708 25.057 95.3369 26.5365 95.3369C27.813 95.3369 28.967 95.6032 29.9942 96.1316C31.0214 96.66 31.8626 97.4335 32.522 98.4522V96.5205C32.522 95.9329 32.9996 95.4595 33.583 95.4595C34.1705 95.4595 34.644 95.9371 34.644 96.5205L34.6482 96.5247ZM29.6983 108.703C30.586 108.196 31.2835 107.473 31.7949 106.534C32.3022 105.596 32.56 104.531 32.56 103.334C32.56 102.138 32.3064 101.069 31.7949 100.135C31.2877 99.1962 30.586 98.4734 29.6983 97.9661C28.8106 97.4589 27.8173 97.201 26.7225 97.201C25.6277 97.201 24.6047 97.4547 23.717 97.9661C22.8294 98.4734 22.1319 99.1962 21.6204 100.135C21.1132 101.073 20.8553 102.138 20.8553 103.334C20.8553 104.531 21.109 105.6 21.6204 106.534C22.1277 107.473 22.8294 108.196 23.717 108.703C24.6047 109.21 25.6065 109.468 26.7225 109.468C27.8384 109.468 28.8106 109.214 29.6983 108.703Z" fill="black"/>
<path d="M63.7822 95.4691C64.3697 95.4691 64.8431 95.9467 64.8431 96.5301V104.177C64.8431 106.51 64.2852 108.29 63.1692 109.52C62.0533 110.746 60.4047 111.359 58.232 111.359C56.854 111.359 55.7043 111.092 54.7743 110.564C53.8486 110.035 53.1342 109.194 52.6354 108.036C52.1366 109.173 51.4265 110.01 50.5092 110.551C49.592 111.088 48.4338 111.359 47.0388 111.359C44.8661 111.359 43.2176 110.746 42.1016 109.52C40.9857 108.294 40.4277 106.514 40.4277 104.177V96.5301C40.4277 95.9425 40.9054 95.4691 41.4887 95.4691C42.0763 95.4691 42.5497 95.9467 42.5497 96.5301V103.995C42.5497 105.851 42.909 107.22 43.6276 108.108C44.3462 108.996 45.4833 109.439 47.0388 109.439C48.5944 109.439 49.7188 108.991 50.467 108.091C51.2152 107.195 51.5871 105.808 51.5871 103.932V96.5258C51.5871 95.9383 52.0648 95.4648 52.6481 95.4648C53.2357 95.4648 53.7091 95.9425 53.7091 96.5258V103.932C53.7091 105.808 54.0769 107.195 54.8166 108.091C55.5563 108.987 56.7019 109.439 58.2574 109.439C59.813 109.439 60.8951 108.996 61.6221 108.108C62.3492 107.22 62.7127 105.851 62.7127 103.995V96.5301C62.7127 95.9425 63.1904 95.4691 63.7737 95.4691H63.7822Z" fill="black"/>
<path d="M84.9841 90.0659V110.191C84.9841 110.753 84.5276 111.21 83.9654 111.21C83.4032 111.21 82.9467 110.753 82.9467 110.191V108.094C82.3084 109.151 81.4672 109.958 80.4189 110.516C79.3706 111.074 78.1913 111.353 76.8724 111.353C75.3972 111.353 74.0614 111.015 72.861 110.335C71.6647 109.658 70.7263 108.707 70.05 107.494C69.3694 106.277 69.0312 104.89 69.0312 103.335C69.0312 101.779 69.3694 100.393 70.05 99.1752C70.7263 97.9578 71.6647 97.0151 72.861 96.3473C74.0572 95.6794 75.393 95.3454 76.8724 95.3454C78.149 95.3454 79.303 95.6118 80.3301 96.1401C81.3573 96.6685 82.1985 97.4421 82.8579 98.4608V90.0659C82.8579 89.4783 83.3356 89.0049 83.9189 89.0049C84.5065 89.0049 84.9799 89.4825 84.9799 90.0659H84.9841ZM80.03 108.707C80.9177 108.2 81.6152 107.477 82.1266 106.539C82.6339 105.6 82.8917 104.535 82.8917 103.339C82.8917 102.143 82.6381 101.073 82.1266 100.139C81.6194 99.2005 80.9177 98.4777 80.03 97.9704C79.1423 97.4632 78.149 97.2053 77.0542 97.2053C75.9594 97.2053 74.9364 97.459 74.0487 97.9704C73.1611 98.4777 72.4636 99.2005 71.9521 100.139C71.4449 101.077 71.187 102.143 71.187 103.339C71.187 104.535 71.4407 105.604 71.9521 106.539C72.4594 107.477 73.1611 108.2 74.0487 108.707C74.9364 109.214 75.9382 109.472 77.0542 109.472C78.1701 109.472 79.1423 109.219 80.03 108.707Z" fill="black"/>
<path d="M90.8699 91.5743C90.5698 91.2741 90.4219 90.9148 90.4219 90.4964C90.4219 90.0779 90.5698 89.7482 90.8699 89.4481C91.1701 89.1479 91.5378 89 91.9774 89C92.417 89 92.7848 89.1437 93.0849 89.4354C93.385 89.7228 93.533 90.0694 93.533 90.4668C93.533 90.9064 93.385 91.2741 93.0849 91.5743C92.7848 91.8744 92.417 92.0223 91.9774 92.0223C91.5378 92.0223 91.1701 91.8744 90.8699 91.5743ZM91.9648 95.4674C92.5523 95.4674 93.0257 95.945 93.0257 96.5284V110.144C93.0257 110.731 92.5481 111.205 91.9648 111.205C91.3772 111.205 90.9038 110.727 90.9038 110.144V96.5284C90.9038 95.9408 91.3814 95.4674 91.9648 95.4674Z" fill="black"/>
<path d="M113.317 96.5247V110.182C113.317 110.744 112.861 111.201 112.298 111.201C111.736 111.201 111.28 110.744 111.28 110.182V108.086C110.641 109.142 109.8 109.95 108.752 110.508C107.704 111.066 106.524 111.345 105.205 111.345C103.73 111.345 102.394 111.007 101.194 110.326C99.9977 109.65 99.0593 108.699 98.383 107.485C97.7024 106.268 97.3643 104.882 97.3643 103.326C97.3643 101.77 97.7024 100.384 98.383 99.1666C99.0593 97.9492 99.9977 97.0066 101.194 96.3387C102.39 95.6708 103.726 95.3369 105.205 95.3369C106.482 95.3369 107.636 95.6032 108.663 96.1316C109.69 96.66 110.531 97.4335 111.191 98.4522V96.5205C111.191 95.9329 111.669 95.4595 112.252 95.4595C112.839 95.4595 113.313 95.9371 113.313 96.5205L113.317 96.5247ZM108.363 108.703C109.251 108.196 109.948 107.473 110.46 106.534C110.967 105.596 111.225 104.531 111.225 103.334C111.225 102.138 110.971 101.069 110.46 100.135C109.952 99.1962 109.251 98.4734 108.363 97.9661C107.475 97.4589 106.482 97.201 105.387 97.201C104.292 97.201 103.269 97.4547 102.382 97.9661C101.494 98.4734 100.797 99.1962 100.285 100.135C99.7779 101.073 99.5201 102.138 99.5201 103.334C99.5201 104.531 99.7737 105.6 100.285 106.534C100.792 107.473 101.494 108.196 102.382 108.703C103.269 109.21 104.271 109.468 105.387 109.468C106.503 109.468 107.475 109.214 108.363 108.703Z" fill="black"/>
<path d="M57.0039 11.9043V17.353" stroke="black" stroke-width="1.75" stroke-linecap="round" stroke-linejoin="round"/>
<path d="M63.2193 12.6367L60.4971 17.3537" stroke="black" stroke-width="1.75" stroke-linecap="round" stroke-linejoin="round"/>
<path d="M50.7852 12.6367L53.5074 17.3537" stroke="black" stroke-width="1.75" stroke-linecap="round" stroke-linejoin="round"/>
<path d="M50.6431 34.4954V27.2016C50.6431 25.1873 49.0105 23.5547 46.9963 23.5547C44.9822 23.5547 43.3496 25.1873 43.3496 27.2016V42.82" stroke="black" stroke-width="1.75" stroke-linecap="round" stroke-linejoin="round"/>
<path d="M46.0183 23.6913C45.617 22.1137 44.189 20.9492 42.4856 20.9492C40.4714 20.9492 38.8389 22.5819 38.8389 24.5961V42.8228" stroke="black" stroke-width="1.75" stroke-linecap="round" stroke-linejoin="round"/>
<path d="M38.8423 24.4148C38.563 24.344 38.268 24.3086 37.969 24.3086C35.9548 24.3086 34.3223 25.9412 34.3223 27.9555V42.8225" stroke="black" stroke-width="1.75" stroke-linecap="round" stroke-linejoin="round"/>
<path d="M67.779 36.1735C69.289 36.1735 70.5131 34.9493 70.5131 33.4393C70.5131 31.9292 69.289 30.7051 67.779 30.7051C66.269 30.7051 65.0449 31.9292 65.0449 33.4393C65.0449 34.9493 66.269 36.1735 67.779 36.1735Z" stroke="black" stroke-width="1.75" stroke-linecap="round" stroke-linejoin="round"/>
<path d="M75.2253 36.1735C76.7353 36.1735 77.9593 34.9493 77.9593 33.4393C77.9593 31.9292 76.7353 30.7051 75.2253 30.7051C73.7153 30.7051 72.4912 31.9292 72.4912 33.4393C72.4912 34.9493 73.7153 36.1735 75.2253 36.1735Z" stroke="black" stroke-width="1.75" stroke-linecap="round" stroke-linejoin="round"/>
<path d="M63.6629 41.3239C64.7948 41.3239 65.7124 40.4063 65.7124 39.2743C65.7124 38.1423 64.7948 37.2246 63.6629 37.2246C62.5309 37.2246 61.6133 38.1423 61.6133 39.2743C61.6133 40.4063 62.5309 41.3239 63.6629 41.3239Z" stroke="black" stroke-width="1.75" stroke-linecap="round" stroke-linejoin="round"/>
<path d="M79.3435 41.3239C80.4755 41.3239 81.3931 40.4063 81.3931 39.2743C81.3931 38.1423 80.4755 37.2246 79.3435 37.2246C78.2116 37.2246 77.2939 38.1423 77.2939 39.2743C77.2939 40.4063 78.2116 41.3239 79.3435 41.3239Z" stroke="black" stroke-width="1.75" stroke-linecap="round" stroke-linejoin="round"/>
<path d="M75.1482 42.3367C75.1482 42.3367 75.1482 42.3052 75.1482 42.2895C75.1482 40.2752 73.5156 38.6426 71.5015 38.6426C69.4873 38.6426 67.8547 40.2752 67.8547 42.2895C67.8547 42.3052 67.8547 42.321 67.8547 42.3367C65.6399 42.6475 63.9326 44.5437 63.9326 46.8452C63.9326 49.363 65.9743 51.4009 68.4881 51.4009C69.6447 51.4009 70.695 50.9681 71.4975 50.26C72.3 50.9681 73.3504 51.4009 74.507 51.4009C77.0247 51.4009 79.0624 49.3591 79.0624 46.8452C79.0624 44.5437 77.3551 42.6475 75.1403 42.3367H75.1482Z" stroke="black" stroke-width="1.75" stroke-linecap="round" stroke-linejoin="round"/>
<path d="M47.8694 50.1133V38.0357C47.8694 36.0214 49.502 34.3887 51.5161 34.3887C53.5303 34.3887 55.1629 36.0214 55.1629 38.0357V55.5818C55.1629 58.67 52.6019 61.1603 49.4902 61.0462C49.0378 67.4195 47.8458 73.5881 45.9969 79.4657C49.4941 80.465 53.188 81 57.0079 81C60.033 81 62.9756 80.6656 65.808 80.0283M34.321 30.2973C34.0417 30.2265 33.7467 30.191 33.4437 30.191C31.4296 30.191 29.797 31.8237 29.797 33.838V55.5857C29.797 58.5245 32.1141 60.9203 35.0173 61.0502C34.6672 65.1259 33.9512 69.0954 32.8969 72.9272C23.2392 65.6255 17 54.0435 17 41.002C17.0039 18.908 34.9111 1 57.0039 1C79.0968 1 97 18.908 97 40.998C97 52.8003 91.8898 63.4067 83.7624 70.7281C82.4091 65.8773 81.6263 60.7905 81.4886 55.5385C83.133 54.2914 84.1991 52.3204 84.1991 50.0976V37.7563C84.1991 30.7458 78.5145 25.061 71.5043 25.061C64.4941 25.061 58.8096 30.7458 58.8096 37.7563V50.0976C58.8096 52.3401 59.8954 54.3268 61.5633 55.5739C61.7364 64.107 63.2156 72.3253 65.8041 80.0283" stroke="black" stroke-width="1.75" stroke-linecap="round" stroke-linejoin="round"/>
<path d="M76.9092 56.9356H77.3655C78.9155 56.9356 80.3474 56.4202 81.4922 55.5469" stroke="black" stroke-width="1.75" stroke-linecap="round" stroke-linejoin="round"/>
</svg>
