<svg width="82" height="82" viewBox="0 0 82 82" fill="none" xmlns="http://www.w3.org/2000/svg">
<path d="M41.0039 11.9043V17.353" stroke="#4CA32D" stroke-width="1.75" stroke-linecap="round" stroke-linejoin="round"/>
<path d="M47.2203 12.6367L44.498 17.3537" stroke="#4CA32D" stroke-width="1.75" stroke-linecap="round" stroke-linejoin="round"/>
<path d="M34.7852 12.6367L37.5074 17.3537" stroke="#4CA32D" stroke-width="1.75" stroke-linecap="round" stroke-linejoin="round"/>
<path d="M34.6431 34.4954V27.2016C34.6431 25.1873 33.0105 23.5547 30.9963 23.5547C28.9822 23.5547 27.3496 25.1873 27.3496 27.2016V42.82" stroke="#4CA32D" stroke-width="1.75" stroke-linecap="round" stroke-linejoin="round"/>
<path d="M30.0192 23.6913C29.618 22.1137 28.19 20.9492 26.4866 20.9492C24.4724 20.9492 22.8398 22.5819 22.8398 24.5961V42.8228" stroke="#4CA32D" stroke-width="1.75" stroke-linecap="round" stroke-linejoin="round"/>
<path d="M22.8423 24.4148C22.563 24.344 22.268 24.3086 21.969 24.3086C19.9548 24.3086 18.3223 25.9412 18.3223 27.9555V42.8225" stroke="#4CA32D" stroke-width="1.75" stroke-linecap="round" stroke-linejoin="round"/>
<path d="M51.779 36.1735C53.289 36.1735 54.5131 34.9493 54.5131 33.4393C54.5131 31.9292 53.289 30.7051 51.779 30.7051C50.269 30.7051 49.0449 31.9292 49.0449 33.4393C49.0449 34.9493 50.269 36.1735 51.779 36.1735Z" stroke="#4CA32D" stroke-width="1.75" stroke-linecap="round" stroke-linejoin="round"/>
<path d="M59.2263 36.1735C60.7362 36.1735 61.9603 34.9493 61.9603 33.4393C61.9603 31.9292 60.7362 30.7051 59.2263 30.7051C57.7163 30.7051 56.4922 31.9292 56.4922 33.4393C56.4922 34.9493 57.7163 36.1735 59.2263 36.1735Z" stroke="#4CA32D" stroke-width="1.75" stroke-linecap="round" stroke-linejoin="round"/>
<path d="M47.6629 41.3239C48.7948 41.3239 49.7124 40.4063 49.7124 39.2743C49.7124 38.1423 48.7948 37.2246 47.6629 37.2246C46.5309 37.2246 45.6133 38.1423 45.6133 39.2743C45.6133 40.4063 46.5309 41.3239 47.6629 41.3239Z" stroke="#4CA32D" stroke-width="1.75" stroke-linecap="round" stroke-linejoin="round"/>
<path d="M63.3445 41.3239C64.4764 41.3239 65.3941 40.4063 65.3941 39.2743C65.3941 38.1423 64.4764 37.2246 63.3445 37.2246C62.2125 37.2246 61.2949 38.1423 61.2949 39.2743C61.2949 40.4063 62.2125 41.3239 63.3445 41.3239Z" stroke="#4CA32D" stroke-width="1.75" stroke-linecap="round" stroke-linejoin="round"/>
<path d="M59.1472 42.3367C59.1472 42.3367 59.1472 42.3052 59.1472 42.2895C59.1472 40.2752 57.5146 38.6426 55.5005 38.6426C53.4863 38.6426 51.8537 40.2752 51.8537 42.2895C51.8537 42.3052 51.8537 42.321 51.8537 42.3367C49.639 42.6475 47.9316 44.5437 47.9316 46.8452C47.9316 49.363 49.9733 51.4009 52.4871 51.4009C53.6437 51.4009 54.694 50.9681 55.4966 50.26C56.2991 50.9681 57.3494 51.4009 58.506 51.4009C61.0237 51.4009 63.0615 49.3591 63.0615 46.8452C63.0615 44.5437 61.3541 42.6475 59.1394 42.3367H59.1472Z" stroke="#4CA32D" stroke-width="1.75" stroke-linecap="round" stroke-linejoin="round"/>
<path d="M31.8694 50.1133V38.0357C31.8694 36.0214 33.502 34.3887 35.5161 34.3887C37.5303 34.3887 39.1629 36.0214 39.1629 38.0357V55.5818C39.1629 58.67 36.6019 61.1603 33.4902 61.0462C33.0378 67.4195 31.8458 73.5881 29.9969 79.4657C33.4941 80.465 37.188 81 41.0079 81C44.033 81 46.9756 80.6656 49.808 80.0283M18.321 30.2973C18.0417 30.2265 17.7467 30.191 17.4437 30.191C15.4296 30.191 13.797 31.8237 13.797 33.838V55.5857C13.797 58.5245 16.1141 60.9203 19.0173 61.0502C18.6672 65.1259 17.9512 69.0954 16.8969 72.9272C7.23918 65.6255 1 54.0435 1 41.002C1.00393 18.908 18.9111 1 41.0039 1C63.0968 1 81 18.908 81 40.998C81 52.8003 75.8898 63.4067 67.7624 70.7281C66.4091 65.8773 65.6263 60.7905 65.4886 55.5385C67.133 54.2914 68.1991 52.3204 68.1991 50.0976V37.7563C68.1991 30.7458 62.5145 25.061 55.5043 25.061C48.4941 25.061 42.8096 30.7458 42.8096 37.7563V50.0976C42.8096 52.3401 43.8954 54.3268 45.5633 55.5739C45.7364 64.107 47.2156 72.3253 49.8041 80.0283" stroke="#4CA32D" stroke-width="1.75" stroke-linecap="round" stroke-linejoin="round"/>
<path d="M60.9102 56.9356H61.3665C62.9165 56.9356 64.3484 56.4202 65.4932 55.5469" stroke="#4CA32D" stroke-width="1.75" stroke-linecap="round" stroke-linejoin="round"/>
</svg>
