<svg width="95" height="72" viewBox="0 0 95 72" fill="none" xmlns="http://www.w3.org/2000/svg">
<path d="M91.3413 4.01559L90.769 4.0664C90.8861 5.39422 91.8781 6.43483 93.1264 6.67123L93.0182 5.42295C92.943 4.57235 92.1941 3.94268 91.3435 4.0178L91.3413 4.01559Z" stroke="#4CA32D" stroke-width="1.75" stroke-linecap="round" stroke-linejoin="round"/>
<path d="M62.9928 65.5923H60.1251C57.781 49.6408 46.3608 43.8854 39.5141 43.2182C33.1953 48.6775 27.5791 54.4329 26.185 65.473C15.357 65.6542 6.52404 56.9294 6.52404 46.1434C6.52404 41.6783 8.03745 37.5667 10.5804 34.2947C11.4354 33.1944 11.3426 31.6302 10.3573 30.6448C9.18189 29.4694 7.23987 29.5909 6.21915 30.9055C2.98467 35.0657 1.04265 40.2864 1.00067 45.9556C0.89904 59.7287 12.3766 70.9964 26.1497 70.9964H67.0735C67.4402 70.9964 67.7363 70.7003 67.7363 70.3336C67.7363 67.7133 65.6131 65.5901 62.9928 65.5901V65.5923Z" stroke="#4CA32D" stroke-width="1.75" stroke-linecap="round" stroke-linejoin="round"/>
<path d="M65.7882 1.91013L72.7124 1.30435C73.5619 1.23002 74.3135 1.86065 74.3878 2.71022L74.9788 9.46491C75.2203 12.2249 73.1759 14.6637 70.4137 14.9053C67.6537 15.1468 65.215 13.1025 64.9733 10.3403L64.3823 3.58558C64.308 2.73602 64.9387 1.98446 65.7882 1.91013Z" stroke="#4CA32D" stroke-width="1.75" stroke-linecap="round" stroke-linejoin="round"/>
<path d="M60.1262 65.5915C57.782 49.64 46.3619 43.8847 39.5151 43.2174C44.6055 38.8186 50.1487 34.612 54.3023 27.9928C59.1806 20.2203 60.2764 8.40691 64.3769 3.42262C64.3902 2.64051 64.9934 1.97991 65.7887 1.90921L72.7128 1.30385C72.7681 1.29943 72.8233 1.29722 72.8763 1.29943L75.722 1.04094C81.3249 0.550465 84.3362 4.62892 84.3362 4.62892L90.7698 4.06554C90.8869 5.39336 91.8789 6.43396 93.1272 6.67036L93.2995 8.64331C93.6398 12.534 90.7632 15.9629 86.8725 16.3031L77.2265 17.1471L77.2796 17.209V65.5937H78.9609C81.5812 65.5937 83.7043 67.7169 83.7043 70.3372C83.7043 70.7039 83.4083 71 83.0415 71H60.5526" stroke="#4CA32D" stroke-width="1.75" stroke-linecap="round" stroke-linejoin="round"/>
</svg>
