<svg width="85" height="72" viewBox="0 0 85 72" fill="none" xmlns="http://www.w3.org/2000/svg">
<path d="M2.50619 13.7362H2.14105C1.50967 13.7362 1 14.2459 1 14.8773V15.2158C1 15.2158 1.01521 15.2158 1.02282 15.2158C1.84057 15.2158 2.50619 14.5502 2.50619 13.7324V13.7362Z" stroke="#4CA32D" stroke-width="1.75" stroke-linecap="round" stroke-linejoin="round"/>
<path d="M30.9715 65.9964C31.7246 56.7273 35.3836 44.5485 52.4993 44.1529C48.5817 34.9447 42.1347 30.9472 35.9427 26.5694C26.8599 20.1453 26.4606 6.35005 12.4561 1.02517C12.2089 0.930078 11.9426 1.11645 11.9426 1.38269V6.01154C5.96356 6.01154 4.13789 13.7364 2.65833 13.7364H2.50619C2.50619 14.5542 1.84057 15.2198 1.02282 15.2198C1.01521 15.2198 1.00761 15.2198 1 15.2198V17.0303C1 19.552 3.04247 21.5944 5.56419 21.5944H11.1591V21.6477C11.1591 38.6759 21.0444 37.1431 21.0444 65.9964H18.7509C16.6171 65.9964 14.8866 67.727 14.8904 69.8645C14.8904 70.4921 15.4038 70.998 16.0314 70.998H21.0444H21.3068H30.7813" stroke="#4CA32D" stroke-width="1.75" stroke-linecap="round" stroke-linejoin="round"/>
<path d="M67.2608 38.6795C61.3502 38.6795 56.4513 34.3283 55.5993 28.6535C55.4472 27.6342 54.5648 26.8887 53.534 26.8887C52.2598 26.8887 51.2709 28.0183 51.4611 29.2773C52.6136 36.9565 59.2278 42.8443 67.219 42.8633L67.257 42.9128C73.7686 42.9128 79.0478 48.2529 79.0478 54.8405C79.0478 61.4282 73.7686 66.7683 67.257 66.7683H56.2193C56.2117 56.7042 54.7854 49.5423 52.4957 44.1565C35.38 44.5521 31.721 56.7309 30.9679 66H27.2063C25.0725 66 23.3419 67.7306 23.3457 69.8681C23.3457 70.4957 23.8592 71.0016 24.4868 71.0016H67.257C76.0811 71.0016 83.2317 63.7673 83.2317 54.8405C83.2317 45.9137 76.0811 38.6795 67.257 38.6795H67.2608Z" stroke="#4CA32D" stroke-width="1.75" stroke-linecap="round" stroke-linejoin="round"/>
</svg>
