<svg width="64" height="72" viewBox="0 0 64 72" fill="none" xmlns="http://www.w3.org/2000/svg">
<path d="M39.387 26.7975C39.4855 26.7975 39.5841 26.7923 39.6774 26.7768C39.2366 25.8901 38.6144 25.3301 37.9507 25.3301C37.9507 26.1286 38.5885 26.782 39.387 26.7975Z" stroke="#4CA32D" stroke-width="1.75" stroke-linecap="round" stroke-linejoin="round"/>
<path d="M59.4939 63.8748H55.3042C55.3042 57.9117 53.2509 52.6746 50.4042 48.459C39.6033 48.9723 33.6972 54.2198 32.1157 65.5444H28.4601C26.3082 65.5444 24.5608 67.2919 24.5608 69.4438C24.5608 70.3045 25.2556 70.9993 26.1164 70.9993H59.4939C61.4591 70.9993 63.0562 69.4075 63.0562 67.4371C63.0562 65.4667 61.4643 63.8748 59.4939 63.8748Z" stroke="#4CA32D" stroke-width="1.75" stroke-linecap="round" stroke-linejoin="round"/>
<path d="M7.0859 5.75927C6.6659 4.0585 6.91479 2.60663 7.99333 1.70439C10.1452 -0.105267 13.863 1.71476 17.0623 5.53111C20.2928 9.38377 24.2647 15.0253 26.9403 19.6558" stroke="#4CA32D" stroke-width="1.75" stroke-linecap="round" stroke-linejoin="round"/>
<path d="M37.9459 25.3242H37.9424H37.9459Z" stroke="#4CA32D" stroke-width="1.75" stroke-linecap="round" stroke-linejoin="round"/>
<path d="M32.116 65.546C33.6975 54.2266 39.6035 48.9739 50.4044 48.4657C45.691 41.4967 38.7998 37.3278 35.362 37.3278L35.3412 37.2811C40.682 34.6366 40.9413 29.3321 39.6709 26.7758C39.5776 26.7913 39.4791 26.8017 39.3806 26.7965C38.5768 26.781 37.9442 26.1276 37.9442 25.3291C36.202 25.3239 35.4657 19.6512 26.2826 19.6512H22.6529C19.2876 15.7778 14.8542 11.4066 11.3023 8.42512C7.49115 5.22581 3.51405 4.07986 1.70439 6.23175C-0.105268 8.38363 1.71476 12.1015 5.53112 15.3008C9.49266 18.6245 15.352 22.7313 20.0551 25.4069C5.39631 46.4227 13.952 56.5185 17.7943 65.546H15.6787C13.5268 65.546 11.7794 67.2934 11.7794 69.4453C11.7794 70.3061 12.4742 71.0009 13.3349 71.0009H31.696" stroke="#4CA32D" stroke-width="1.75" stroke-linecap="round" stroke-linejoin="round"/>
</svg>
