<svg width="51" height="37" viewBox="0 0 51 37" fill="none" xmlns="http://www.w3.org/2000/svg">
<path d="M35.1451 1C31.4703 1 28.3162 3.1647 26.8508 6.28158C24.4034 11.5632 19.278 15.357 13.2228 15.9446C13.2377 14.2411 12.7542 11.2284 12.2186 9.2348C11.8094 7.70984 10.9837 6.69071 10.1283 6.92132C9.2728 7.15192 9.06451 8.44628 9.47364 9.97124C9.66705 10.6854 9.92741 11.5185 10.2324 12.3591C9.09426 10.9011 7.78503 9.41333 6.68408 8.30494C5.17399 6.79486 3.50769 6.15512 2.65223 7.00315C1.79676 7.85861 2.4365 9.51747 3.95402 11.035C4.98058 12.0616 6.34189 13.2592 7.69576 14.3378C6.59481 13.9287 5.47899 13.5716 4.54169 13.3187C2.79356 12.8501 1.3058 13.0807 1.038 14.07C0.770199 15.0594 1.94554 16.0041 3.69366 16.4728C6.1336 17.1274 9.9051 17.7151 11.7722 17.6109C12.9699 25.4738 19.7541 31.4918 27.9517 31.4918C29.9379 31.4918 31.8422 31.1347 33.6052 30.4876C39.8613 28.1815 44.3172 22.1784 44.3172 15.1264V13.289V10.1795C44.3172 5.11368 40.2109 1.00744 35.1451 1.00744V1Z" stroke="#4CA32D" stroke-width="1.75" stroke-linecap="round" stroke-linejoin="round"/>
<path d="M27.9451 31.4922V36.0001H31.5306" stroke="#4CA32D" stroke-width="1.75" stroke-linecap="round" stroke-linejoin="round"/>
<path d="M42.8225 5.15757L50.0828 4.40625L44.2731 9.30101" stroke="#4CA32D" stroke-width="1.75" stroke-linecap="round" stroke-linejoin="round"/>
</svg>
