<svg width="20" height="20" viewBox="0 0 20 20" fill="none" xmlns="http://www.w3.org/2000/svg">
<path d="M19.2407 13.0609C19.1908 13.2184 19.0473 13.346 18.834 13.4297L18.6825 13.4895C18.0048 13.7526 17.3031 14.0237 16.6114 14.2869C16.1967 14.4443 15.9755 14.7394 15.9615 15.1679C15.9436 15.7221 15.9117 16.2843 15.8778 16.8325C15.8638 17.0916 15.8499 17.3448 15.8359 17.6019C15.818 17.9567 15.6186 18.17 15.3017 18.17C15.2319 18.17 15.1641 18.1601 15.0904 18.1421L14.6159 18.0185C13.998 17.8571 13.3621 17.6856 12.7342 17.5102C12.6365 17.4823 12.5448 17.4684 12.4571 17.4684C12.176 17.4684 11.9368 17.5919 11.7374 17.8371C11.267 18.4332 10.7926 19.0232 10.2284 19.7189C10.0809 19.9043 9.90948 20 9.75399 20C9.5985 20 9.42109 19.8983 9.26959 19.7149C8.7812 19.1189 8.25892 18.483 7.75259 17.8411C7.51338 17.5421 7.23231 17.4763 7.04293 17.4763C6.95124 17.4763 6.85755 17.4903 6.75788 17.5182C6.4768 17.5959 6.18576 17.6757 5.90469 17.7494C5.43026 17.873 4.93988 18.0026 4.46145 18.1561C4.19832 18.2398 3.97705 18.1979 3.81957 18.0405C3.69997 17.9209 3.63418 17.7494 3.63418 17.566C3.63817 17.0398 3.60229 16.5195 3.57039 16.0112C3.55245 15.744 3.53252 15.467 3.52056 15.1998C3.49664 14.6656 3.16573 14.4344 2.88864 14.3327C2.18696 14.0736 1.4773 13.8025 0.785584 13.5353L0.586242 13.4576C0.400854 13.3878 0.273275 13.2642 0.221446 13.1107C0.171611 12.9632 0.203505 12.7918 0.30517 12.6303C0.725782 11.9665 1.17231 11.2688 1.63877 10.5691C1.87798 10.2103 1.87798 9.83156 1.63877 9.47075C1.18626 8.79697 0.733755 8.10525 0.319124 7.4554C0.199518 7.26602 0.157657 7.08263 0.207492 6.92913C0.253341 6.78162 0.39288 6.65205 0.594216 6.5743C1.31384 6.28925 2.07931 5.99821 2.86871 5.6972C3.26141 5.54969 3.4767 5.25067 3.49066 4.82607C3.51458 4.16625 3.54647 3.28915 3.61026 2.40407C3.63817 2.01734 3.79565 1.86385 4.17241 1.86385C4.29201 1.86385 4.43155 1.88179 4.58305 1.91966C4.7206 1.95754 4.87409 1.99741 5.03556 2.03927C5.52395 2.16884 6.07812 2.31636 6.63628 2.47782C6.75588 2.50972 6.86153 2.52766 6.96918 2.52766C7.27816 2.52766 7.54129 2.39011 7.75259 2.11701C8.15925 1.59075 8.58784 1.06449 8.99848 0.554171L9.21975 0.281072C9.36726 0.101665 9.5387 0 9.70017 0C9.86163 0 10.0331 0.0976777 10.1746 0.277086C10.346 0.484401 10.5115 0.691717 10.6829 0.899033C11.0098 1.29971 11.3527 1.72032 11.6796 2.13097C11.883 2.38413 12.1321 2.5137 12.4172 2.5137C12.5149 2.5137 12.6165 2.49975 12.7222 2.46786C13.4378 2.26054 14.1714 2.06718 14.8811 1.8778L15.0425 1.83594C15.1203 1.81202 15.2 1.80405 15.2678 1.80405C15.7243 1.80405 15.7941 2.21469 15.802 2.39011C15.816 2.6672 15.8299 2.94428 15.8479 3.22536C15.8758 3.74165 15.9077 4.27788 15.9316 4.80215C15.9495 5.22276 16.1708 5.53175 16.5595 5.67328C16.9183 5.80684 17.2831 5.94638 17.638 6.07994C18.0068 6.21748 18.3895 6.36499 18.7722 6.50453C19.0114 6.59224 19.1729 6.72979 19.2287 6.88727C19.2786 7.04475 19.2327 7.24609 19.0952 7.45938L18.9058 7.75441C18.551 8.30858 18.1822 8.88069 17.8134 9.43287C17.5084 9.88936 17.642 10.2821 17.8134 10.5312C18.242 11.1632 18.6626 11.819 19.0732 12.4509L19.133 12.5486C19.2526 12.72 19.2945 12.9074 19.2447 13.0609H19.2407Z" fill="#4CA32D"/>
<path d="M6.15808 10.0333L8.51231 12.3855L13.2806 7.61523" stroke="white" stroke-width="1.5" stroke-linecap="round" stroke-linejoin="round"/>
</svg>
